.
..............................Site Info...........................

 -   http://www.scenetime.com  *_*   

Good news ! SceneTime will open sign up on Easter day for one day . Its a good chance to get on on Easter day .

Scenetime .Always on time . friendly online private torrent community ..

     We care to share . Join us on  http://www.scenetime.com 

    Be the first to get new release at  http://www.scenetime.com

        Seed back for speed


...................................NFO:.................................................[img]http://i.imgur.com/REJmK.jpg[/img]

[b]Mirror.Mirror.2012.TS.XViD.AC3-ADTRG[/b]

An evil queen steals control of a kingdom and an exiled princess enlists the help of seven resourceful rebels to win back her birthright. 

[url]http://www.imdb.com/title/tt1667353/[/url]

Source - cam  video   - Mirror Mirror 2012 CAM XViD-WBZ   Thanks
Source - Line Audio   - Dragon Exclusive                 Awesome work bro

Complete name                            : Mirror.Mirror.2012.TS.XViD.AC3-ADTRG.avi
Format                                   : AVI
Format/Info                              : Audio Video Interleave
File size                                : 1.37 GiB
Duration                                 : 1h 38mn
Overall bit rate                         : 1 992 Kbps
Writing library                          : VirtualDub build 34703/release

Video
ID                                       : 0
Format                                   : MPEG-4 Visual
Codec ID                                 : XVID
Duration                                 : 1h 38mn
Bit rate                                 : 1 795 Kbps
Width                                    : 720 pixels
Height                                   : 280 pixels
Display aspect ratio                     : 2.571
Frame rate                               : 25.000 fps
Stream size                              : 1.23 GiB (90%)

Audio
ID                                       : 1
Format                                   : AC-3
Bit rate                                 : 192 Kbps
Channel(s)                               : 2 channels
Channel positions                        : Front: L R
Sampling rate                            : 48.0 KHz
Stream size                              : 131 MiB (9%)



Encoder - LiMeY
notes- run filters, synced our Awesome new line audio and then grilled out ;)
       Once again i'd like to say thanks to every one at Dragon. your all a Great team and good friends.
       your know where to find us, come and say hi ;)



[img]http://i.imgur.com/FqYc1.jpg[/img]


[IMG]http://i.imgur.com/2739o.gif?1?8830[/IMG]

Dont fear the Atomic Dragon, Embrace it  :)


Greetz to DragonMaster,cOOkies,Mr Geek,DBratt420,AnimeKing,Cush,NoWoRRiEs Rayne, Mr & Mrs IrNbRu and the rest of the crew

Respect to CM8,Goon,Hope,mSD,InfernO,legend-rg and maybe a few more ;)